<svg width="1440" height="142" viewBox="0 0 1440 142" fill="none" xmlns="http://www.w3.org/2000/svg">
<rect width="1440" height="142" fill="white"/>
<path fill-rule="evenodd" clip-rule="evenodd" d="M1275 17H165V16H1275V17Z" fill="url(#paint0_linear)"/>
<g clip-path="url(#clip0)">
<g clip-path="url(#clip1)">
<path d="M300.3 76.8443C300.158 76.5031 300.026 76.1443 299.885 75.8381L299.232 74.3768L299.205 74.3506C297.264 70.1506 295.191 65.8806 292.994 61.6806L292.905 61.5056C292.685 61.0943 292.464 60.6393 292.235 60.2193C291.953 59.7206 291.679 59.1868 291.229 58.6793C290.79 58.1483 290.238 57.7205 289.613 57.4267C288.987 57.133 288.304 56.9806 287.611 56.9806C286.919 56.9806 286.236 57.133 285.61 57.4267C284.984 57.7205 284.432 58.1483 283.994 58.6793C283.579 59.1868 283.27 59.7206 282.988 60.2193C282.767 60.6743 282.547 61.1206 282.317 61.5318L282.229 61.7068C280.067 65.9068 277.958 70.1768 276.017 74.3768L275.964 74.4293C275.77 74.8843 275.541 75.3568 275.32 75.8643C275.179 76.1706 275.038 76.5031 274.897 76.8706C274.515 77.8329 274.394 78.8771 274.543 79.9003C274.693 80.9234 275.109 81.8903 275.75 82.7054C276.392 83.5206 277.236 84.1561 278.2 84.5491C279.165 84.9421 280.216 85.0792 281.25 84.9468C282.241 84.8174 283.195 84.49 284.055 83.9843C285.203 83.3456 286.305 82.4181 287.541 81.0793C288.776 82.4181 289.905 83.3456 291.026 83.9931C292.104 84.6203 293.324 84.9665 294.573 84.9993C296.02 85.0053 297.419 84.4921 298.514 83.5545C299.609 82.6168 300.324 81.3181 300.529 79.8981C300.765 78.8776 300.685 77.8102 300.3 76.8356V76.8443ZM287.629 78.2968C286.111 76.3718 285.123 74.6043 284.788 73.0906C284.649 72.5297 284.619 71.9476 284.7 71.3756C284.761 70.9293 284.929 70.5356 285.158 70.2031C285.688 69.4418 286.614 68.9693 287.629 68.9693C288.111 68.9547 288.589 69.059 289.02 69.2728C289.451 69.4866 289.822 69.8033 290.1 70.1943C290.329 70.5443 290.497 70.9293 290.55 71.3756C290.638 71.8831 290.603 72.4693 290.461 73.0906C290.126 74.5781 289.138 76.3631 287.629 78.2968ZM298.87 79.5918C298.77 80.3128 298.481 80.9951 298.032 81.5708C297.583 82.1465 296.99 82.5955 296.311 82.8731C295.641 83.1531 294.9 83.2318 294.176 83.1531C293.47 83.0656 292.764 82.8381 292.041 82.4181C290.839 81.6818 289.759 80.767 288.838 79.7056C290.691 77.4306 291.811 75.3568 292.235 73.5106C292.438 72.6356 292.464 71.8481 292.376 71.1218C292.266 70.4335 292.007 69.7768 291.617 69.1968C291.172 68.5679 290.578 68.0571 289.887 67.7092C289.196 67.3614 288.43 67.1871 287.655 67.2018C286.023 67.2018 284.567 67.9543 283.685 69.1881C283.288 69.7666 283.031 70.4285 282.935 71.1218C282.82 71.8568 282.847 72.6706 283.076 73.5106C283.5 75.3568 284.647 77.4568 286.473 79.7231C285.567 80.8047 284.485 81.7276 283.27 82.4531C282.538 82.8731 281.841 83.0918 281.135 83.1793C280.037 83.3188 278.928 83.0229 278.049 82.3561C277.17 81.6892 276.592 80.7053 276.441 79.6181C276.353 78.9181 276.414 78.2181 276.697 77.4306C276.785 77.1506 276.917 76.8706 277.058 76.5381C277.253 76.0831 277.482 75.6106 277.703 75.1381L277.738 75.0768C279.644 70.9031 281.726 66.6418 283.888 62.4681L283.976 62.2931C284.197 61.8731 284.417 61.4268 284.647 61.0068C284.876 60.5606 285.123 60.1318 285.441 59.7818C285.716 59.4564 286.059 59.1946 286.447 59.015C286.835 58.8354 287.258 58.7423 287.686 58.7423C288.114 58.7423 288.537 58.8354 288.925 59.015C289.313 59.1946 289.657 59.4564 289.932 59.7818C290.241 60.1318 290.497 60.5606 290.726 61.0068C290.947 61.4268 291.167 61.8818 291.397 62.2931L291.485 62.4681C293.638 66.6418 295.72 70.9031 297.661 75.0768L297.688 75.1031C297.917 75.5581 298.111 76.0656 298.332 76.5031C298.473 76.8443 298.614 77.1156 298.703 77.4043C298.87 78.1918 298.958 78.8918 298.87 79.5918ZM311.153 78.1043C310.488 78.114 309.829 77.9751 309.226 77.6979C308.622 77.4207 308.09 77.0123 307.667 76.5031C306.718 75.4181 306.214 74.019 306.255 72.5831C306.241 71.1159 306.761 69.6928 307.72 68.5756C308.164 68.0599 308.716 67.6469 309.338 67.3657C309.96 67.0845 310.637 66.942 311.32 66.9481C311.963 66.9306 312.6 67.0757 313.172 67.3696C313.743 67.6634 314.229 68.0965 314.585 68.6281L314.673 67.2543H317.25V77.8243H314.664L314.576 76.2843C314.209 76.8519 313.702 77.3171 313.103 77.6356C312.504 77.9541 311.832 78.1155 311.153 78.1043ZM311.823 75.5843C312.335 75.5843 312.785 75.4443 313.208 75.1906C313.597 74.9106 313.914 74.5431 314.161 74.0968C314.382 73.6506 314.497 73.1168 314.497 72.5218C314.531 72.0051 314.43 71.4883 314.202 71.022C313.975 70.5558 313.629 70.156 313.2 69.8618C312.787 69.6067 312.31 69.4714 311.823 69.4714C311.336 69.4714 310.86 69.6067 310.447 69.8618C310.058 70.1418 309.741 70.5093 309.494 70.9556C309.26 71.4477 309.146 71.9869 309.158 72.5306C309.124 73.0474 309.225 73.5642 309.453 74.0304C309.68 74.4967 310.026 74.8964 310.455 75.1906C310.87 75.4443 311.32 75.5843 311.823 75.5843ZM321.661 64.4018C321.661 64.7081 321.608 64.9881 321.467 65.2156C321.326 65.4343 321.132 65.6356 320.876 65.7756C320.62 65.9156 320.347 65.9681 320.064 65.9681C319.782 65.9681 319.5 65.9156 319.244 65.7756C319.002 65.642 318.798 65.4492 318.653 65.2156C318.516 64.9663 318.449 64.6854 318.458 64.4018C318.458 64.0868 318.52 63.8068 318.653 63.5881C318.794 63.3256 318.997 63.1681 319.244 63.0281C319.5 62.8881 319.773 62.8268 320.064 62.8268C320.345 62.8204 320.623 62.8864 320.87 63.0183C321.118 63.1502 321.326 63.3435 321.476 63.5793C321.604 63.8344 321.668 64.1168 321.661 64.4018ZM318.661 77.7893V67.2368H321.467V77.8068H318.653L318.661 77.7893ZM328.967 70.0018V70.0368C328.835 69.9756 328.658 69.9493 328.526 69.9231C328.35 69.8881 328.208 69.8881 328.041 69.8881C327.255 69.8881 326.664 70.1156 326.276 70.5881C325.853 71.0693 325.658 71.7431 325.658 72.6093V77.7981H322.844V67.2281H325.429L325.517 68.8293C325.8 68.2693 326.135 67.8493 326.611 67.5343C327.085 67.2283 327.643 67.0754 328.208 67.0968C328.411 67.0968 328.605 67.1143 328.773 67.1493C328.861 67.1756 328.914 67.1756 328.967 67.2018V70.0018ZM330.097 77.7893V62.8968H332.903V68.5843C333.3 68.0768 333.75 67.6831 334.314 67.3768C335.208 66.9422 336.224 66.8189 337.197 67.0268C338.171 67.2348 339.045 67.7619 339.679 68.5231C340.63 69.6104 341.134 71.0129 341.091 72.4518C341.105 73.919 340.585 75.3421 339.626 76.4593C339.182 76.975 338.63 77.388 338.008 77.6692C337.386 77.9504 336.71 78.093 336.026 78.0868C335.383 78.1043 334.746 77.9593 334.175 77.6654C333.604 77.3715 333.117 76.9384 332.761 76.4068L332.673 77.7806L330.097 77.8068V77.7893ZM335.523 75.5843C336.026 75.5843 336.476 75.4443 336.9 75.1906C337.288 74.9106 337.605 74.5431 337.853 74.0968C338.082 73.6506 338.188 73.1168 338.188 72.5218C338.188 71.9356 338.082 71.4018 337.853 70.9556C337.621 70.5253 337.295 70.1516 336.9 69.8618C336.487 69.6067 336.01 69.4714 335.523 69.4714C335.036 69.4714 334.56 69.6067 334.147 69.8618C333.75 70.1418 333.441 70.5093 333.185 70.9556C332.952 71.4477 332.837 71.9869 332.85 72.5306C332.815 73.0474 332.917 73.5642 333.144 74.0304C333.371 74.4967 333.717 74.8964 334.147 75.1906C334.561 75.4443 335.011 75.5843 335.523 75.5843ZM342.15 77.7981V67.2281H344.735L344.823 68.6018C345.148 68.0753 345.609 67.6443 346.158 67.3536C346.707 67.0628 347.325 66.9228 347.947 66.9481C348.658 66.9359 349.357 67.1319 349.956 67.5117C350.556 67.8914 351.029 68.438 351.317 69.0831C351.626 69.7481 351.794 70.5706 351.794 71.4893V77.8243H348.979V71.8568C348.979 71.1218 348.811 70.5443 348.476 70.1156C348.141 69.6956 347.682 69.4681 347.1 69.4681C346.676 69.4681 346.305 69.5556 345.979 69.7481C345.67 69.9493 345.414 70.2031 345.22 70.5618C345.024 70.9245 344.927 71.3317 344.938 71.7431V77.7981H342.15ZM353.197 77.7981V62.8881H356.011V68.5756C356.393 68.0653 356.889 67.6501 357.46 67.363C358.031 67.0759 358.662 66.9249 359.303 66.9218C359.967 66.9122 360.626 67.0511 361.229 67.3283C361.833 67.6055 362.365 68.0139 362.788 68.5231C363.732 69.6103 364.233 71.0086 364.191 72.4431C364.206 73.9104 363.686 75.3338 362.726 76.4506C362.282 76.9663 361.73 77.3793 361.108 77.6605C360.486 77.9417 359.81 78.0842 359.126 78.0781C358.483 78.0955 357.846 77.9505 357.275 77.6566C356.704 77.3627 356.217 76.9297 355.861 76.3981L355.782 77.7718L353.197 77.7981ZM358.65 75.5843C359.161 75.5843 359.611 75.4443 360.026 75.1906C360.423 74.9106 360.732 74.5431 360.988 74.0968C361.208 73.6506 361.323 73.1168 361.323 72.5218C361.357 72.0051 361.256 71.4883 361.029 71.022C360.801 70.5558 360.456 70.156 360.026 69.8618C359.613 69.6067 359.136 69.4714 358.65 69.4714C358.163 69.4714 357.686 69.6067 357.273 69.8618C356.885 70.1418 356.567 70.5093 356.32 70.9556C356.074 71.4433 355.958 71.9858 355.985 72.5306C355.95 73.0474 356.052 73.5642 356.279 74.0304C356.507 74.4967 356.852 74.8964 357.282 75.1906C357.697 75.4443 358.12 75.5843 358.65 75.5843Z" fill="#FF385C"/>
</g>
<g clip-path="url(#clip2)">
<path d="M437.597 62.9728V69.7425H431.428V62.9728H428.5V79.1328H431.428V72.5829H437.597V79.1328H440.525V62.9728H437.597Z" fill="#33475B"/>
<path d="M449.897 73.9091C449.897 74.5567 449.642 75.1779 449.188 75.6358C448.733 76.0938 448.117 76.351 447.475 76.351C446.832 76.351 446.216 76.0938 445.762 75.6358C445.307 75.1779 445.052 74.5567 445.052 73.9091V66.9875H442.274V73.9091C442.274 75.298 442.822 76.63 443.796 77.612C444.77 78.5941 446.092 79.1459 447.47 79.1459C448.848 79.1459 450.169 78.5941 451.143 77.612C452.118 76.63 452.665 75.298 452.665 73.9091V66.9875H449.897V73.9091Z" fill="#33475B"/>
<path d="M470.479 67.7005C470.479 66.2817 471.41 65.832 472.43 65.832C473.252 65.832 474.338 66.4625 475.049 67.2276L476.868 65.0669C475.96 63.8289 474.117 62.9728 472.609 62.9728C469.596 62.9728 467.417 64.7516 467.417 67.7005C467.417 73.1715 474.051 71.4361 474.051 74.4977C474.051 75.4421 473.142 76.2765 472.1 76.2765C470.457 76.2765 469.925 75.4667 469.17 74.6105L467.151 76.7263C468.443 78.3244 470.035 79.1357 471.944 79.1357C474.806 79.1357 477.109 77.3352 477.109 74.5208C477.109 68.4467 470.474 70.334 470.474 67.7005" fill="#33475B"/>
<path d="M511.523 76.5513C509.881 76.5513 509.415 75.8355 509.415 74.7392V69.8872H511.966V67.4286H509.415V64.1847L506.599 65.4588V75.3423C506.599 77.8703 508.329 79.1444 510.702 79.1444C511.074 79.1512 511.446 79.1212 511.813 79.0547L512.5 76.5051C512.19 76.5268 511.834 76.5484 511.523 76.5484" fill="#33475B"/>
<path d="M460.471 67.0685C459.095 67.0685 458.135 67.4705 457.206 68.3889V63.0697H454.424V72.9285C454.424 76.6193 457.072 79.1473 460.046 79.1473C463.346 79.1473 466.249 76.5745 466.249 73.1093C466.249 69.6876 463.577 67.0699 460.471 67.0699V67.0685ZM460.453 76.3257C459.829 76.3257 459.219 76.1391 458.7 75.7895C458.181 75.4399 457.776 74.943 457.537 74.3616C457.298 73.7802 457.236 73.1405 457.357 72.5233C457.479 71.9061 457.78 71.3392 458.221 70.8942C458.663 70.4493 459.225 70.1463 459.838 70.0235C460.45 69.9007 461.085 69.9637 461.661 70.2045C462.238 70.4454 462.731 70.8532 463.078 71.3764C463.425 71.8996 463.61 72.5148 463.61 73.144C463.61 73.9879 463.277 74.7971 462.685 75.3938C462.093 75.9905 461.291 76.3257 460.453 76.3257Z" fill="#33475B"/>
<path d="M490.679 72.9618C490.679 69.4909 487.782 66.9239 484.476 66.9239C481.502 66.9239 478.855 69.4518 478.855 73.1426V83.0072H481.637V77.6808C482.564 78.5977 483.525 79.0012 484.9 79.0012C488.006 79.0012 490.678 76.385 490.678 72.9618H490.679ZM488.045 72.9271C488.045 73.5564 487.86 74.1715 487.513 74.6948C487.166 75.218 486.673 75.6258 486.096 75.8666C485.519 76.1074 484.885 76.1704 484.272 76.0477C483.66 75.9249 483.098 75.6219 482.656 75.1769C482.215 74.7319 481.914 74.165 481.792 73.5478C481.671 72.9306 481.733 72.2909 481.972 71.7095C482.211 71.1282 482.615 70.6312 483.135 70.2816C483.654 69.932 484.264 69.7454 484.888 69.7454C485.725 69.7454 486.528 70.0806 487.12 70.6773C487.712 71.274 488.045 72.0833 488.045 72.9271Z" fill="#33475B"/>
<path d="M499.667 66.7879V63.9707C500.036 63.7967 500.349 63.5206 500.569 63.1744C500.789 62.8283 500.906 62.4263 500.908 62.0154V61.9503C500.908 61.375 500.681 60.8232 500.278 60.4164C499.874 60.0095 499.327 59.781 498.756 59.781H498.691C498.121 59.781 497.573 60.0095 497.17 60.4164C496.766 60.8232 496.539 61.375 496.539 61.9503V62.0154C496.541 62.4263 496.659 62.8283 496.878 63.1744C497.098 63.5206 497.411 63.7967 497.78 63.9707V66.7879C496.719 66.9516 495.719 67.3951 494.882 68.0736L487.217 62.0559C487.271 61.8574 487.3 61.6528 487.303 61.447C487.304 60.9636 487.163 60.4907 486.897 60.0883C486.631 59.6858 486.253 59.3719 485.81 59.1861C485.367 59.0004 484.88 58.9512 484.409 59.0448C483.938 59.1384 483.506 59.3705 483.166 59.7119C482.827 60.0532 482.595 60.4884 482.501 60.9625C482.407 61.4365 482.454 61.9281 482.637 62.375C482.82 62.8219 483.13 63.2041 483.529 63.4732C483.927 63.7423 484.396 63.8862 484.876 63.8868C485.295 63.8849 485.707 63.7722 486.069 63.5599L493.618 69.4793C492.94 70.5119 492.586 71.7265 492.602 72.9647C492.619 74.203 493.005 75.4075 493.711 76.4212L491.415 78.7351C491.23 78.6754 491.036 78.6437 490.841 78.6411C490.448 78.6414 490.063 78.7593 489.736 78.98C489.408 79.2007 489.153 79.5142 489.003 79.8809C488.852 80.2477 488.813 80.6512 488.89 81.0404C488.967 81.4297 489.156 81.7872 489.435 82.0679C489.713 82.3485 490.068 82.5397 490.454 82.6172C490.84 82.6947 491.241 82.655 491.604 82.5033C491.968 82.3515 492.279 82.0945 492.498 81.7646C492.717 81.4347 492.834 81.0468 492.834 80.6499C492.832 80.4535 492.801 80.2585 492.741 80.0714L495.012 77.7821C495.753 78.3565 496.614 78.7525 497.53 78.9397C498.446 79.1269 499.392 79.1003 500.297 78.862C501.201 78.6236 502.039 78.1799 502.746 77.5647C503.454 76.9496 504.013 76.1793 504.38 75.3129C504.746 74.4466 504.912 73.5071 504.863 72.5664C504.813 71.6257 504.551 70.7089 504.097 69.886C503.642 69.0632 503.006 68.3562 502.238 67.8192C501.471 67.2822 500.591 66.9294 499.667 66.7879ZM498.726 76.0524C498.105 76.0518 497.497 75.8656 496.981 75.5173C496.465 75.169 496.062 74.6742 495.825 74.0955C495.587 73.5168 495.526 72.8802 495.647 72.266C495.768 71.6519 496.068 71.0878 496.507 70.6451C496.947 70.2024 497.506 69.9009 498.116 69.7788C498.725 69.6566 499.357 69.7193 499.931 69.9589C500.505 70.1985 500.996 70.6042 501.341 71.1248C501.686 71.6454 501.871 72.2575 501.871 72.8837C501.871 73.7237 501.54 74.5293 500.951 75.1233C500.361 75.7172 499.562 76.0509 498.729 76.0509" fill="#FF7A59"/>
</g>
<g clip-path="url(#clip3)">
<path d="M612.246 71.3591C612.246 75.2457 609.161 78.1096 605.375 78.1096C601.589 78.1096 598.504 75.2457 598.504 71.3591C598.504 67.4452 601.589 64.6087 605.375 64.6087C609.161 64.6087 612.246 67.4452 612.246 71.3591ZM609.238 71.3591C609.238 68.9304 607.45 67.2687 605.375 67.2687C603.3 67.2687 601.512 68.9304 601.512 71.3591C601.512 73.7635 603.3 75.4496 605.375 75.4496C607.45 75.4496 609.238 73.7604 609.238 71.3591Z" fill="#EA4335"/>
<path d="M627.07 71.3591C627.07 75.2457 623.985 78.1096 620.198 78.1096C616.412 78.1096 613.327 75.2457 613.327 71.3591C613.327 67.4483 616.412 64.6087 620.198 64.6087C623.985 64.6087 627.07 67.4452 627.07 71.3591ZM624.062 71.3591C624.062 68.9304 622.274 67.2687 620.198 67.2687C618.123 67.2687 616.335 68.9304 616.335 71.3591C616.335 73.7635 618.123 75.4496 620.198 75.4496C622.274 75.4496 624.062 73.7604 624.062 71.3591Z" fill="#FBBC05"/>
<path d="M641.276 65.0165V77.1357C641.276 82.1209 638.292 84.157 634.766 84.157C631.446 84.157 629.448 81.9687 628.694 80.1791L631.313 79.1048C631.779 80.2035 632.922 81.5 634.763 81.5C637.02 81.5 638.419 80.1274 638.419 77.5435V76.5726H638.314C637.641 77.3913 636.344 78.1065 634.707 78.1065C631.282 78.1065 628.144 75.1665 628.144 71.3835C628.144 67.5731 631.282 64.6087 634.707 64.6087C636.341 64.6087 637.638 65.3239 638.314 66.1183H638.419V65.0196H641.276V65.0165ZM638.632 71.3835C638.632 69.0065 637.023 67.2687 634.976 67.2687C632.9 67.2687 631.162 69.0065 631.162 71.3835C631.162 73.7361 632.9 75.4496 634.976 75.4496C637.023 75.4496 638.632 73.7361 638.632 71.3835Z" fill="#4285F4"/>
<path d="M645.985 57.9131V77.6957H643.051V57.9131H645.985Z" fill="#34A853"/>
<path d="M657.418 73.5809L659.753 75.1148C658.999 76.2135 657.183 78.1065 654.046 78.1065C650.154 78.1065 647.248 75.1422 647.248 71.3561C647.248 67.3417 650.179 64.6057 653.709 64.6057C657.264 64.6057 659.002 67.3935 659.571 68.9L659.882 69.667L650.726 73.4043C651.427 74.7587 652.517 75.4496 654.046 75.4496C655.577 75.4496 656.64 74.707 657.418 73.5809ZM650.232 71.1522L656.353 68.6474C656.016 67.8043 655.003 67.217 653.811 67.217C652.282 67.217 650.154 68.547 650.232 71.1522Z" fill="#EA4335"/>
<path d="M587.398 69.603V66.7391H597.191C597.287 67.2383 597.336 67.8287 597.336 68.4678C597.336 70.6165 596.74 73.2735 594.82 75.1665C592.951 77.0839 590.564 78.1065 587.402 78.1065C581.54 78.1065 576.611 73.4013 576.611 67.6248C576.611 61.8483 581.54 57.143 587.402 57.143C590.644 57.143 592.954 58.3969 594.69 60.0313L592.639 62.0522C591.395 60.9017 589.708 60.0069 587.398 60.0069C583.118 60.0069 579.771 63.4065 579.771 67.6248C579.771 71.843 583.118 75.2426 587.398 75.2426C590.175 75.2426 591.756 74.1439 592.769 73.1456C593.59 72.3361 594.131 71.1796 594.344 69.6L587.398 69.603Z" fill="#4285F4"/>
</g>
<g clip-path="url(#clip4)">
<path d="M767.564 72.9752L766.836 75.031H766.776C766.655 74.5674 766.432 73.862 766.069 73.0155L762.171 63.2403H758.353V78.8201H760.878V69.2062C760.878 68.6015 760.878 67.9163 760.858 67.0698C760.837 66.6465 760.797 66.324 760.777 66.0822H760.837C760.959 66.6868 761.1 67.1302 761.201 67.4124L765.887 78.7798H767.665L772.31 67.3116C772.411 67.0496 772.512 66.5256 772.613 66.0822H772.674C772.613 67.231 772.573 68.2589 772.553 68.8837V78.7597H775.239V63.2H771.563L767.564 72.9752ZM777.784 67.5938H780.41V78.7597H777.784V67.5938ZM779.117 62.8775C778.673 62.8775 778.309 63.0387 778.006 63.3209C777.703 63.6031 777.542 63.9659 777.542 64.4093C777.542 64.8325 777.703 65.1953 778.006 65.4775C778.309 65.7597 778.673 65.9008 779.117 65.9008C779.562 65.9008 779.945 65.7395 780.228 65.4775C780.531 65.1953 780.693 64.8325 780.693 64.4093C780.693 63.986 780.531 63.6232 780.228 63.3209C779.966 63.0387 779.582 62.8775 779.117 62.8775ZM789.722 67.493C789.237 67.3922 788.732 67.3318 788.247 67.3318C787.055 67.3318 785.965 67.5938 785.056 68.1178C784.147 68.6418 783.42 69.3674 782.955 70.2744C782.47 71.2015 782.228 72.2698 782.228 73.4992C782.228 74.5674 782.47 75.5147 782.935 76.3814C783.399 77.2279 784.046 77.9132 784.914 78.3767C785.742 78.8403 786.712 79.0822 787.803 79.0822C789.055 79.0822 790.125 78.8201 790.974 78.3364L790.994 78.3163V75.8977L790.893 75.9783C790.509 76.2605 790.065 76.5023 789.621 76.6434C789.156 76.8046 788.732 76.8853 788.368 76.8853C787.318 76.8853 786.49 76.5829 785.904 75.9178C785.298 75.2729 784.995 74.386 784.995 73.2775C784.995 72.1287 785.298 71.2217 785.924 70.5566C786.55 69.8915 787.378 69.5488 788.388 69.5488C789.237 69.5488 790.105 69.831 790.893 70.3953L790.994 70.476V67.9163L790.974 67.8961C790.63 67.755 790.247 67.5938 789.722 67.493ZM798.387 67.4124C797.74 67.4124 797.134 67.6139 796.609 68.0372C796.165 68.4 795.862 68.924 795.599 69.5488H795.579V67.5938H792.953V78.7597H795.579V73.0558C795.579 72.0884 795.781 71.2822 796.225 70.6977C796.67 70.093 797.235 69.7907 797.922 69.7907C798.165 69.7907 798.407 69.8511 798.71 69.8915C798.993 69.9721 799.195 70.0527 799.336 70.1535L799.437 70.2341V67.6139L799.376 67.5938C799.195 67.4729 798.831 67.4124 798.387 67.4124ZM805.537 67.3519C803.699 67.3519 802.224 67.8961 801.194 68.9643C800.144 70.0325 799.639 71.5039 799.639 73.3581C799.639 75.0915 800.164 76.5023 801.174 77.5302C802.184 78.538 803.558 79.062 805.274 79.062C807.072 79.062 808.506 78.5178 809.536 77.4294C810.587 76.3411 811.092 74.8899 811.092 73.0961C811.092 71.3225 810.607 69.9116 809.617 68.8837C808.668 67.8558 807.274 67.3519 805.537 67.3519ZM807.638 75.938C807.153 76.5628 806.385 76.8651 805.436 76.8651C804.487 76.8651 803.719 76.5628 803.174 75.8977C802.628 75.2729 802.366 74.3659 802.366 73.217C802.366 72.0279 802.649 71.1209 803.174 70.476C803.719 69.831 804.467 69.5085 805.416 69.5085C806.345 69.5085 807.072 69.8108 807.597 70.4356C808.122 71.0604 808.405 71.9674 808.405 73.1566C808.365 74.3659 808.143 75.3132 807.638 75.938ZM816.949 72.2294C816.121 71.8868 815.596 71.6248 815.354 71.4031C815.152 71.2015 815.051 70.9194 815.051 70.5566C815.051 70.2542 815.172 69.9519 815.475 69.7504C815.778 69.5488 816.121 69.448 816.626 69.448C817.071 69.448 817.535 69.5287 817.979 69.6496C818.424 69.7705 818.828 69.9519 819.151 70.1938L819.252 70.2744V67.8155L819.191 67.7953C818.888 67.6744 818.484 67.5535 818 67.4527C817.515 67.3721 817.071 67.3318 816.707 67.3318C815.455 67.3318 814.424 67.6341 813.617 68.2992C812.809 68.924 812.425 69.7705 812.425 70.7581C812.425 71.2822 812.506 71.7457 812.687 72.1287C812.869 72.5116 813.132 72.8744 813.495 73.1767C813.859 73.4589 814.384 73.7814 815.111 74.0837C815.717 74.3457 816.182 74.5473 816.465 74.7085C816.747 74.8698 816.929 75.0511 817.071 75.1922C817.171 75.3535 817.232 75.555 817.232 75.817C817.232 76.5628 816.667 76.9256 815.515 76.9256C815.071 76.9256 814.606 76.8449 814.061 76.6636C813.516 76.4822 813.011 76.2201 812.586 75.9178L812.485 75.8372V78.3969L812.546 78.417C812.93 78.5984 813.394 78.7194 813.96 78.8605C814.525 78.9612 815.03 79.0418 815.475 79.0418C816.828 79.0418 817.939 78.7395 818.727 78.0744C819.535 77.4294 819.959 76.6031 819.959 75.5349C819.959 74.7891 819.757 74.124 819.313 73.6201C818.727 73.1364 818 72.6325 816.949 72.2294ZM826.887 67.3519C825.049 67.3519 823.574 67.8961 822.544 68.9643C821.514 70.0325 820.989 71.5039 820.989 73.3581C820.989 75.0915 821.514 76.5023 822.524 77.5302C823.534 78.538 824.908 79.062 826.624 79.062C828.422 79.062 829.856 78.5178 830.886 77.4294C831.937 76.3411 832.442 74.8899 832.442 73.0961C832.442 71.3225 831.957 69.9116 830.967 68.8837C830.018 67.8558 828.624 67.3519 826.887 67.3519ZM828.968 75.938C828.483 76.5628 827.715 76.8651 826.766 76.8651C825.796 76.8651 825.049 76.5628 824.504 75.8977C823.958 75.2729 823.696 74.3659 823.696 73.217C823.696 72.0279 823.978 71.1209 824.504 70.476C825.049 69.831 825.796 69.5085 826.746 69.5085C827.655 69.5085 828.402 69.8108 828.927 70.4356C829.452 71.0604 829.735 71.9674 829.735 73.1566C829.735 74.3659 829.472 75.3132 828.968 75.938ZM846.48 69.7504V67.5938H843.834V64.2884L843.753 64.3085L841.248 65.0542L841.188 65.0744V67.5938H837.229V66.1829C837.229 65.538 837.39 65.0341 837.673 64.7116C837.956 64.3891 838.38 64.2279 838.905 64.2279C839.269 64.2279 839.653 64.3085 840.077 64.4899L840.178 64.5504V62.2729L840.117 62.2527C839.754 62.1318 839.269 62.0511 838.643 62.0511C837.855 62.0511 837.168 62.2325 836.542 62.5349C835.916 62.8775 835.451 63.3411 835.108 63.9659C834.765 64.5705 834.583 65.2558 834.583 66.0418V67.5938H832.745V69.7302H834.583V78.7597H837.229V69.7504H841.188V75.4946C841.188 77.8527 842.299 79.0418 844.521 79.0418C844.884 79.0418 845.268 78.9814 845.631 78.9209C846.015 78.8403 846.298 78.7395 846.46 78.6589L846.48 78.6387V76.4822L846.379 76.5628C846.217 76.6636 846.076 76.7442 845.833 76.8046C845.631 76.8651 845.45 76.8853 845.308 76.8853C844.783 76.8853 844.42 76.7643 844.157 76.462C843.915 76.1798 843.793 75.7163 843.793 75.031V69.7504H846.48Z" fill="#737373"/>
<path d="M724.5 58H736.882V70.355H724.5V58Z" fill="#F25022"/>
<path d="M738.174 58H750.556V70.355H738.174V58Z" fill="#7FBA00"/>
<path d="M724.5 71.645H736.882V84H724.5V71.645Z" fill="#00A4EF"/>
<path d="M738.174 71.645H750.556V84H738.174V71.645Z" fill="#FFB900"/>
</g>
<g clip-path="url(#clip5)">
<path d="M950.002 67.2478V68.7213H950.047C950.577 67.9324 951.457 67.0033 953.408 67.0033C954.926 67.0033 956.091 67.7759 956.59 68.943H956.635C957.061 68.3529 957.55 67.9063 958.097 67.5901C958.745 67.2152 959.466 67.0001 960.374 67.0001C962.429 67.0001 964.248 68.3366 964.248 71.7074V78.1001H961.115V72.154C961.115 70.4458 960.499 69.4581 959.216 69.4581C958.277 69.4581 957.595 70.0514 957.335 70.7816C957.245 71.0326 957.203 71.3749 957.203 71.6617V78.1033H954.07V71.9128C954.07 70.4621 953.478 69.4548 952.213 69.4548C951.201 69.4548 950.567 70.2046 950.307 70.8468C950.196 71.1206 950.161 71.4368 950.161 71.7335V78.1001H947.025V67.2478H950.002ZM980.418 67.2478V69.2951H980.504C981.079 67.7303 982.445 67.0033 983.644 67.0033C983.945 67.0033 984.112 67.0262 984.354 67.0718V69.9144C984.067 69.8753 983.8 69.8362 983.426 69.8362C982.067 69.8362 981.121 70.5795 980.882 71.7432C980.83 71.9845 980.813 72.2453 980.813 72.5452V78.1033H977.597V67.2478H980.418ZM988.721 63.6522V67.0685H991.438V69.8329H988.721V73.9111C988.721 75.2313 989.078 75.8703 990.138 75.8703C990.637 75.8703 991.004 75.8116 991.323 75.7366L991.365 78.0283C990.938 78.1783 990.031 78.3413 989.109 78.3413C988.024 78.3413 987.12 77.986 986.569 77.435C985.938 76.8059 985.647 75.7757 985.647 74.3088V63.6522H988.721ZM944.842 78.1001H941.723V63.6522H944.842V78.1001ZM936.525 74.224C936.525 74.4229 936.508 74.6315 936.449 74.8108C936.206 75.5639 935.378 76.1995 934.345 76.1995C933.482 76.1995 932.796 75.7399 932.796 74.7652C932.796 73.2754 934.543 72.8614 936.528 72.8712V74.224H936.525ZM939.64 71.6259C939.64 69.1647 938.525 67.0033 934.751 67.0033C932.814 67.0033 931.275 67.5151 930.436 67.9715L931.05 69.947C931.816 69.4907 933.039 69.1158 934.196 69.1158C936.113 69.1125 936.425 70.1361 936.425 70.7914V70.9478C932.249 70.9413 929.612 72.3007 929.612 75.0716C929.612 76.7635 930.953 78.3478 933.288 78.3478C934.726 78.3478 935.926 77.8099 936.646 76.9461H936.716C936.716 76.9461 937.194 78.8205 939.821 78.1033C939.682 77.3209 939.637 76.4897 939.637 75.4889V71.6259H939.64ZM913.945 63.6522C914.267 65.1811 915.182 69.621 915.182 69.621C915.566 71.4466 915.92 73.3602 916.187 74.8728H916.235C916.495 73.2656 916.904 71.7432 917.341 69.859L918.883 63.6522H922.296L923.738 70.0188C924.115 71.7889 924.417 73.1548 924.656 74.801H924.701C924.961 73.1385 925.301 71.7172 925.671 69.8981L927.058 63.6522H930.332L926.274 78.1001C923.689 78.6314 922.698 77.6535 922.345 76.1017C921.991 74.5468 921.298 71.59 921.298 71.59C920.941 69.9699 920.664 68.8289 920.47 67.1663H920.421C920.144 68.8126 919.853 69.9666 919.423 71.5868L917.722 78.1033C915.081 78.5988 914.166 77.8653 913.66 75.8735C913.224 74.1686 910.5 63.6554 910.5 63.6554H913.945V63.6522ZM972.399 74.224C972.399 74.4229 972.381 74.6315 972.322 74.8108C972.08 75.5639 971.252 76.1995 970.219 76.1995C969.356 76.1995 968.67 75.7399 968.67 74.7652C968.67 73.2754 970.416 72.8614 972.402 72.8712V74.224H972.399ZM975.514 71.6259C975.514 69.1647 974.398 67.0033 970.624 67.0033C968.687 67.0033 967.149 67.5151 966.31 67.9715L966.923 69.947C967.689 69.4907 968.913 69.1158 970.07 69.1158C971.983 69.1125 972.298 70.1361 972.298 70.7914V70.9478C968.126 70.9413 965.489 72.3007 965.489 75.0716C965.489 76.7635 966.833 78.3478 969.165 78.3478C970.6 78.3478 971.803 77.8099 972.52 76.9461H972.593C972.593 76.9461 973.071 78.8205 975.698 78.1033C975.559 77.3209 975.514 76.4897 975.514 75.4889V71.6259Z" fill="#041E42"/>
<path d="M1004.08 73.1241C1004.39 73.6517 1004.37 74.2406 1004.04 74.5096L998.367 78.4276C997.776 78.7646 996.892 78.3561 996.391 77.5017C995.887 76.6439 995.977 75.6874 996.567 75.3504L1002.85 72.4705C1003.24 72.3208 1003.77 72.5965 1004.08 73.1241ZM1011.54 73.1241C1011.86 72.5965 1012.38 72.3242 1012.78 72.4671L1019.06 75.3469C1019.65 75.6839 1019.74 76.6405 1019.24 77.4983C1018.73 78.3527 1017.85 78.7578 1017.26 78.4242L1011.59 74.5062C1011.26 74.2406 1011.24 73.6483 1011.54 73.1241ZM1007.81 75.2482C1008.43 75.2482 1008.94 75.5614 1009.01 75.9733L1009.62 82.7745C1009.62 83.4485 1008.82 84 1007.81 84C1006.81 84 1006.01 83.4485 1006.01 82.7745L1006.62 75.9733C1006.69 75.5614 1007.2 75.2482 1007.81 75.2482ZM1011.59 67.4938L1017.26 63.5724C1017.85 63.2354 1018.73 63.6405 1019.24 64.4983C1019.74 65.3561 1019.65 66.3126 1019.06 66.6496L1012.78 69.5329C1012.38 69.6758 1011.85 69.4035 1011.54 68.8759C1011.24 68.3483 1011.26 67.7594 1011.59 67.4938ZM1002.85 69.5329L996.567 66.6496C995.98 66.3126 995.89 65.3561 996.391 64.4983C996.892 63.6405 997.78 63.2354 998.367 63.5724L1004.04 67.4938C1004.37 67.756 1004.39 68.3483 1004.08 68.8759C1003.77 69.4035 1003.24 69.6758 1002.85 69.5329ZM1006.62 66.0267L1006.01 59.2255C1006.01 58.5515 1006.81 58 1007.81 58C1008.82 58 1009.62 58.5515 1009.62 59.2255L1009.01 66.0267C1008.94 66.4352 1008.43 66.7518 1007.81 66.7518C1007.2 66.7518 1006.69 66.4352 1006.62 66.0267ZM1020.77 78.4004V78.2302H1020.93C1020.98 78.2302 1021.01 78.2642 1021.01 78.3153C1021.01 78.3629 1020.98 78.4004 1020.93 78.4004H1020.77ZM1020.64 78.7101C1020.64 78.7272 1020.66 78.7442 1020.68 78.7442H1020.74C1020.76 78.7442 1020.78 78.7272 1020.78 78.7101V78.5161H1020.89L1020.97 78.7203C1020.98 78.734 1020.99 78.7442 1021 78.7442H1021.08C1021.11 78.7442 1021.12 78.7203 1021.11 78.6965C1021.08 78.6352 1021.05 78.5706 1021.02 78.5059C1021.07 78.4889 1021.15 78.4378 1021.15 78.3153C1021.15 78.1859 1021.04 78.111 1020.94 78.111H1020.68C1020.66 78.111 1020.64 78.128 1020.64 78.1451V78.7101ZM1020.36 78.4276C1020.36 78.1519 1020.59 77.9272 1020.87 77.9272C1021.15 77.9272 1021.38 78.1485 1021.38 78.4276C1021.38 78.7033 1021.15 78.928 1020.87 78.928C1020.59 78.928 1020.36 78.7033 1020.36 78.4276ZM1020.24 78.4276C1020.24 78.768 1020.52 79.0471 1020.87 79.0471C1021.22 79.0471 1021.5 78.768 1021.5 78.4276C1021.5 78.0872 1021.22 77.8081 1020.87 77.8081C1020.52 77.8081 1020.24 78.0872 1020.24 78.4276Z" fill="#FFC124"/>
</g>
<g clip-path="url(#clip6)">
<path d="M1144.99 82.2817L1151.66 74.8925L1144.99 67.5022H1152.03L1155.33 71.0919L1158.52 67.5022H1165.31L1158.67 74.8619L1165.4 82.2817H1158.33L1155.06 78.6625L1151.82 82.2817H1144.99Z" fill="#FF6600"/>
<path d="M1144.99 64.1891H1137.43V67.5022H1144.99V72.4952H1137.43V77.0782H1144.99V82.2817H1131.88V59H1144.99V64.1891Z" fill="#FF6600"/>
<path d="M1126.35 59V68.528H1126.29C1125.07 67.1408 1123.54 66.6587 1121.76 66.6587C1118.13 66.6587 1115.39 69.0951 1114.42 72.3162C1113.33 68.767 1110.5 66.5922 1106.31 66.5922C1102.9 66.5922 1100.21 68.0987 1098.81 70.5536V67.5025H1091.77V64.1898H1099.45V59H1085.5V82.2821H1091.77V72.4952H1098.03C1097.84 73.2142 1097.74 73.9839 1097.74 74.7961C1097.74 79.6527 1101.5 83.0603 1106.31 83.0603C1110.35 83.0603 1113.01 81.1911 1114.42 77.7831H1109.04C1108.31 78.8069 1107.76 79.111 1106.31 79.111C1104.62 79.111 1103.17 77.661 1103.17 75.9423H1114.12C1114.59 79.7998 1117.64 83.1265 1121.82 83.1265C1123.63 83.1265 1125.28 82.2515 1126.29 80.7742H1126.35V82.2814H1131.88V59H1126.35ZM1103.34 72.5648C1103.69 71.0861 1104.86 70.1195 1106.31 70.1195C1107.91 70.1195 1109.01 71.0562 1109.3 72.5648C1109.42 72.5648 1103.34 72.5648 1103.34 72.5648ZM1122.99 78.7369C1120.96 78.7369 1119.69 76.8646 1119.69 74.9096C1119.69 72.8199 1120.79 70.8104 1122.99 70.8104C1125.28 70.8104 1126.19 72.8199 1126.19 74.9096C1126.19 76.8913 1125.22 78.7369 1122.99 78.7369Z" fill="#652C8F"/>
</g>
</g>
<path fill-rule="evenodd" clip-rule="evenodd" d="M1275 126H165V125H1275V126Z" fill="url(#paint1_linear)"/>
<defs>
<linearGradient id="paint0_linear" x1="165" y1="16" x2="1275" y2="17.0086" gradientUnits="userSpaceOnUse">
<stop stop-color="#C0CCDA" stop-opacity="0.1"/>
<stop offset="0.503785" stop-color="#C0CCDA" stop-opacity="0.6"/>
<stop offset="1" stop-color="#C0CCDA" stop-opacity="0.1"/>
</linearGradient>
<linearGradient id="paint1_linear" x1="165" y1="125" x2="1275" y2="126.009" gradientUnits="userSpaceOnUse">
<stop stop-color="#C0CCDA" stop-opacity="0.1"/>
<stop offset="0.503785" stop-color="#C0CCDA" stop-opacity="0.6"/>
<stop offset="1" stop-color="#C0CCDA" stop-opacity="0.1"/>
</linearGradient>
<clipPath id="clip0">
<rect width="891" height="60" fill="white" transform="translate(274.5 41)"/>
</clipPath>
<clipPath id="clip1">
<rect width="90" height="28" fill="white" transform="translate(274.5 57)"/>
</clipPath>
<clipPath id="clip2">
<rect width="84" height="24" fill="white" transform="translate(428.5 59)"/>
</clipPath>
<clipPath id="clip3">
<rect width="84" height="28" fill="white" transform="translate(576.5 57)"/>
</clipPath>
<clipPath id="clip4">
<rect width="122" height="26" fill="white" transform="translate(724.5 58)"/>
</clipPath>
<clipPath id="clip5">
<rect width="111" height="26" fill="white" transform="translate(910.5 58)"/>
</clipPath>
<clipPath id="clip6">
<rect width="80" height="24" fill="white" transform="translate(1085.5 59)"/>
</clipPath>
</defs>
</svg>
