<svg width="48" height="48" viewBox="0 0 48 48" fill="none" xmlns="http://www.w3.org/2000/svg">
<path d="M14.6667 9.33325H10.6667C10.313 9.33325 9.97391 9.47373 9.72386 9.72378C9.47381 9.97382 9.33333 10.313 9.33333 10.6666V37.3333C9.33333 37.6869 9.47381 38.026 9.72386 38.2761C9.97391 38.5261 10.313 38.6666 10.6667 38.6666H14.6667V9.33325Z" fill="#D6B1FF"/>
<path d="M17.3333 38.6666H30.6667V9.33325H17.3333V38.6666ZM24 33.3333C23.6464 33.3333 23.3072 33.1928 23.0572 32.9427C22.8071 32.6927 22.6667 32.3535 22.6667 31.9999C22.6667 31.6463 22.8071 31.3072 23.0572 31.0571C23.3072 30.8071 23.6464 30.6666 24 30.6666C24.3536 30.6666 24.6928 30.8071 24.9428 31.0571C25.1929 31.3072 25.3333 31.6463 25.3333 31.9999C25.3333 32.3535 25.1929 32.6927 24.9428 32.9427C24.6928 33.1928 24.3536 33.3333 24 33.3333ZM24 14.6666C24.3536 14.6666 24.6928 14.8071 24.9428 15.0571C25.1929 15.3072 25.3333 15.6463 25.3333 15.9999C25.3333 16.3535 25.1929 16.6927 24.9428 16.9427C24.6928 17.1928 24.3536 17.3333 24 17.3333C23.6464 17.3333 23.3072 17.1928 23.0572 16.9427C22.8071 16.6927 22.6667 16.3535 22.6667 15.9999C22.6667 15.6463 22.8071 15.3072 23.0572 15.0571C23.3072 14.8071 23.6464 14.6666 24 14.6666ZM24 22.6666C24.3536 22.6666 24.6928 22.8071 24.9428 23.0571C25.1929 23.3072 25.3333 23.6463 25.3333 23.9999C25.3333 24.3535 25.1929 24.6927 24.9428 24.9427C24.6928 25.1928 24.3536 25.3333 24 25.3333C23.6464 25.3333 23.3072 25.1928 23.0572 24.9427C22.8071 24.6927 22.6667 24.3535 22.6667 23.9999C22.6667 23.6463 22.8071 23.3072 23.0572 23.0571C23.3072 22.8071 23.6464 22.6666 24 22.6666Z" fill="#8C30F5"/>
<path d="M37.3333 9.33325H33.3333V38.6666H37.3333C37.687 38.6666 38.0261 38.5261 38.2761 38.2761C38.5262 38.026 38.6667 37.6869 38.6667 37.3333V10.6666C38.6667 10.313 38.5262 9.97382 38.2761 9.72378C38.0261 9.47373 37.687 9.33325 37.3333 9.33325Z" fill="#2EC5CE"/>
</svg>
