<svg width="48" height="48" viewBox="0 0 48 48" fill="none" xmlns="http://www.w3.org/2000/svg">
<path d="M32 21.3333H40L36 16L32 21.3333ZM32 26.6667H40L36 32L32 26.6667Z" fill="#D6B1FF"/>
<path d="M9.33333 8H17.3333V40H9.33333C8.97971 40 8.64057 39.8595 8.39052 39.6095C8.14047 39.3594 8 39.0203 8 38.6667V9.33333C8 8.97971 8.14047 8.64057 8.39052 8.39052C8.64057 8.14047 8.97971 8 9.33333 8Z" fill="#8C30F5"/>
<path d="M20 8H28C28.3536 8 28.6928 8.14047 28.9428 8.39052C29.1929 8.64057 29.3333 8.97971 29.3333 9.33333V38.6667C29.3333 39.0203 29.1929 39.3594 28.9428 39.6095C28.6928 39.8595 28.3536 40 28 40H20V8Z" fill="#2EC5CE"/>
</svg>
