<svg width="48" height="48" viewBox="0 0 48 48" fill="none" xmlns="http://www.w3.org/2000/svg">
<path d="M20 21.3333H10.6667C10.3131 21.3333 9.97392 21.1928 9.72387 20.9427C9.47382 20.6927 9.33334 20.3535 9.33334 19.9999V10.6666C9.33334 10.313 9.47382 9.97382 9.72387 9.72378C9.97392 9.47373 10.3131 9.33325 10.6667 9.33325H20C20.3536 9.33325 20.6928 9.47373 20.9428 9.72378C21.1929 9.97382 21.3333 10.313 21.3333 10.6666V19.9999C21.3333 20.3535 21.1929 20.6927 20.9428 20.9427C20.6928 21.1928 20.3536 21.3333 20 21.3333Z" fill="#8C30F5"/>
<path d="M20 38.6665H10.6667C10.3131 38.6665 9.97392 38.526 9.72387 38.276C9.47382 38.0259 9.33334 37.6868 9.33334 37.3332V27.9998C9.33334 27.6462 9.47382 27.3071 9.72387 27.057C9.97392 26.807 10.3131 26.6665 10.6667 26.6665H20C20.3536 26.6665 20.6928 26.807 20.9428 27.057C21.1929 27.3071 21.3333 27.6462 21.3333 27.9998V37.3332C21.3333 37.6868 21.1929 38.0259 20.9428 38.276C20.6928 38.526 20.3536 38.6665 20 38.6665Z" fill="#8C30F5"/>
<path d="M25.3333 10.6665H38.6667V13.3332H25.3333V10.6665Z" fill="#2EC5CE"/>
<path d="M38.6667 28H25.3333V30.6667H38.6667V28Z" fill="#2EC5CE"/>
<path d="M38.6667 34.6665H25.3333V37.3332H38.6667V34.6665Z" fill="#D6B1FF"/>
<path d="M38.6667 17.3333H25.3333V19.9999H38.6667V17.3333Z" fill="#D6B1FF"/>
</svg>
