<svg width="48" height="48" viewBox="0 0 48 48" fill="none" xmlns="http://www.w3.org/2000/svg">
<path d="M36 40.0001H24C23.6464 40.0001 23.3072 39.8596 23.0572 39.6096C22.8071 39.3595 22.6667 39.0204 22.6667 38.6667V36.0001C22.6667 35.6465 22.8071 35.3073 23.0572 35.0573C23.3072 34.8072 23.6464 34.6667 24 34.6667H36C36.3536 34.6667 36.6928 34.8072 36.9428 35.0573C37.1928 35.3073 37.3333 35.6465 37.3333 36.0001V38.6667C37.3333 39.0204 37.1928 39.3595 36.9428 39.6096C36.6928 39.8596 36.3536 40.0001 36 40.0001Z" fill="#D6B1FF"/>
<path d="M36 8H12C11.6464 8 11.3072 8.14047 11.0572 8.39052C10.8071 8.64057 10.6667 8.97971 10.6667 9.33333V12C10.6667 12.3536 10.8071 12.6928 11.0572 12.9428C11.3072 13.1929 11.6464 13.3333 12 13.3333H36C36.3536 13.3333 36.6928 13.1929 36.9428 12.9428C37.1929 12.6928 37.3333 12.3536 37.3333 12V9.33333C37.3333 8.97971 37.1929 8.64057 36.9428 8.39052C36.6928 8.14047 36.3536 8 36 8Z" fill="#2EC5CE"/>
<path d="M36 16H12C11.6464 16 11.3072 16.1405 11.0572 16.3905C10.8071 16.6406 10.6667 16.9797 10.6667 17.3333V30.6667C10.6667 31.0203 10.8071 31.3594 11.0572 31.6095C11.3072 31.8595 11.6464 32 12 32H36C36.3536 32 36.6928 31.8595 36.9428 31.6095C37.1929 31.3594 37.3333 31.0203 37.3333 30.6667V17.3333C37.3333 16.9797 37.1929 16.6406 36.9428 16.3905C36.6928 16.1405 36.3536 16 36 16Z" fill="#8C30F5"/>
</svg>
